<svg width="3410" height="3337" xmlns="http://www.w3.org/2000/svg" xmlns:xlink="http://www.w3.org/1999/xlink" xml:space="preserve" overflow="hidden"><g transform="translate(-311 -279)"><g><g><g><g><path d="M3044.12 1480.5C3044.32 1241.68 2850.88 1047.91 2612.05 1047.71 2514.37 1047.63 2419.53 1080.62 2342.99 1141.32 2321.23 903.402 2110.72 728.168 1872.8 749.928 1665.02 768.93 1500.41 933.541 1481.41 1141.32 1294.18 992.973 1022.14 1024.49 873.786 1211.72 725.435 1398.94 756.949 1670.98 944.178 1819.34 1011.76 1872.89 1093.81 1905.01 1179.78 1911.59L1179.78 2612.42 2644.62 2612.42 2644.62 1911.59C2869.96 1894.34 3044.03 1706.5 3044.12 1480.5Z" fill="#FFFFFF" fill-rule="nonzero" fill-opacity="1"/><path d="M1179.78 2745.58 2644.62 2745.58 2644.62 3011.92 1179.78 3011.92Z" fill="#FFFFFF" fill-rule="nonzero" fill-opacity="1"/></g></g></g><g><g><g><path d="M821.844 361.25C541.875 361.25 316.094 587.031 316.094 867 316.094 955.506 339.575 1038.59 379.312 1110.84 417.244 1071.11 458.787 1031.37 503.944 988.019 617.737 881.45 751.4 773.075 863.387 693.6 870.612 688.181 877.837 684.569 886.869 684.569 906.737 684.569 922.994 700.825 922.994 720.694 922.994 733.337 917.575 742.369 908.544 749.594L908.544 749.594C747.787 865.194 534.65 1044.01 390.15 1206.57 390.15 1206.57 370.281 1228.25 361.25 1239.09 279.969 1334.82 225.781 1421.52 225.781 1482.93L334.156 1482.93C334.156 1443.19 397.375 1356.49 493.106 1253.54 581.612 1329.4 695.406 1374.56 821.844 1374.56 912.156 1374.56 998.856 1351.07 1072.91 1307.72 1459.45 1092.78 1508.22 697.212 1508.22 252.875 1508.22 252.875 1087.36 368.475 821.844 361.25Z" fill="#275317" fill-rule="nonzero" fill-opacity="1" transform="matrix(1 0 0 1 1986 1881)"/></g></g></g></g></g></svg>